<?xml version="1.0"?>
<svg xmlns="http://www.w3.org/2000/svg" xmlns:xlink="http://www.w3.org/1999/xlink" xmlns:svgjs="http://svgjs.com/svgjs" version="1.1" width="512" height="512" x="0" y="0" viewBox="0 0 62 62" style="enable-background:new 0 0 512 512" xml:space="preserve" class=""><g><g xmlns="http://www.w3.org/2000/svg"><path d="m56 33v-1h1c2.757 0 5-2.243 5-5 0-1.627-.793-3.061-2-3.974v-6.026c0-7.168-5.832-13-13-13h-1v-1c0-1.654-1.346-3-3-3s-3 1.346-3 3v1h-1c-7.168 0-13 5.832-13 13v6.026c-1.207.914-2 2.348-2 3.974 0 2.757 2.243 5 5 5h1v1c0 2.535 1.058 4.824 2.75 6.461-1.48 1.142-2.462 2.835-2.689 4.704-1.193.397-2.061 1.511-2.061 2.835v4c0 1.654 1.346 3 3 3 .352 0 .686-.072 1-.184v6.184c0 1.103.897 2 2 2h18c1.103 0 2-.897 2-2v-6.184c.314.112.648.184 1 .184 1.654 0 3-1.346 3-3v-4c0-1.324-.868-2.438-2.06-2.835-.227-1.869-1.21-3.562-2.689-4.704 1.691-1.637 2.749-3.926 2.749-6.461zm1-3h-1v-1.465l2.555-1.703-1.109-1.664-1.446.964v-2.132h1c1.654 0 3 1.346 3 3s-1.346 3-3 3zm0-8h-1v-2h2v2.101c-.323-.066-.658-.101-1-.101zm1-5v1h-2v-1c0-1.654-1.346-3-3-3h-1.025c-.179-3.065-1.516-5.875-3.695-7.919 5.464.637 9.72 5.287 9.72 10.919zm-16.732-11h3.463c3.039 1.599 4.978 4.602 5.219 8h-13.901c.241-3.398 2.18-6.401 5.219-8zm11.732 10c.551 0 1 .449 1 1v1h-22v-1c0-.551.449-1 1-1zm-11-13c0-.551.449-1 1-1s1 .449 1 1v1h-2zm-4.28 3.081c-2.179 2.045-3.516 4.854-3.695 7.919h-1.025c-1.654 0-3 1.346-3 3v1h-2v-1c0-5.632 4.256-10.282 9.72-10.919zm-9.72 13.919h2v2h-1c-.342 0-.677.035-1 .101zm1 10c-1.654 0-3-1.346-3-3s1.346-3 3-3h1v2.132l-1.445-.964-1.109 1.664 2.554 1.703v1.465zm3 3v-13h22v13c0 3.86-3.14 7-7 7h-8c-3.86 0-7-3.14-7-7zm8.238 11h-2.238v-1.865zm.724-2h4.076l-2.038 1.698zm-.962 4h6v2h-6zm5.762-2 2.238-1.865v1.865zm-11.346-3.269c.499.297 1.029.547 1.584.744v2.525h-2c-.51 0-.971.198-1.324.513-.187-.126-.392-.225-.606-.307.234-1.438 1.094-2.714 2.346-3.475zm-3.416 11.269c-.551 0-1-.449-1-1v-4c0-.551.449-1 1-1s1 .449 1 1v4c0 .551-.449 1-1 1zm3 8v-14h4v4h10v-4h4v.999.001 4c0 .002.001.003.001.005v8.995zm22-9c0 .551-.449 1-1 1s-1-.449-1-1v-4c0-.551.449-1 1-1s1 .449 1 1zm-2.07-6.794c-.214.082-.419.18-.606.307-.353-.315-.814-.513-1.324-.513h-2v-2.525c.555-.197 1.085-.447 1.584-.744 1.252.761 2.112 2.037 2.346 3.475z" fill="#0dd923" data-original="#000000" style="" class=""/><path d="m38 26c2.206 0 4-1.794 4-4h-2c0 1.103-.897 2-2 2s-2-.897-2-2h-2c0 2.206 1.794 4 4 4z" fill="#0dd923" data-original="#000000" style="" class=""/><path d="m48 26c2.206 0 4-1.794 4-4h-2c0 1.103-.897 2-2 2s-2-.897-2-2h-2c0 2.206 1.794 4 4 4z" fill="#0dd923" data-original="#000000" style="" class=""/><path d="m35.215 35.271-.143.357 1.856.743.144-.357c.975-2.438 3.302-4.014 5.928-4.014s4.953 1.576 5.929 4.014l.143.357 1.856-.743-.143-.357c-1.28-3.202-4.336-5.271-7.785-5.271s-6.505 2.069-7.785 5.271z" fill="#0dd923" data-original="#000000" style="" class=""/><path d="m24 36h-22c-1.103 0-2 .897-2 2v22c0 1.103.897 2 2 2h22c1.103 0 2-.897 2-2v-22c0-1.103-.897-2-2-2zm-10 4v2h-2v-2h-2v2h-2v-4h10v4h-2v-2zm-12 20v-22h4v4c0 1.103.897 2 2 2h10c1.103 0 2-.897 2-2v-4h4l.001 22z" fill="#0dd923" data-original="#000000" style="" class=""/><path d="m16 56h2v2h-2z" fill="#0dd923" data-original="#000000" style="" class=""/><path d="m20 56h2v2h-2z" fill="#0dd923" data-original="#000000" style="" class=""/><path d="m14 52h8v2h-8z" fill="#0dd923" data-original="#000000" style="" class=""/><path d="m14 48h8v2h-8z" fill="#0dd923" data-original="#000000" style="" class=""/><path d="m12 30h2v2h-2z" fill="#0dd923" data-original="#000000" style="" class=""/><path d="m16 30h2v2h-2z" fill="#0dd923" data-original="#000000" style="" class=""/><path d="m8 30h2v2h-2z" fill="#0dd923" data-original="#000000" style="" class=""/><path d="m4 22h5.382l1.276 2.553c.446.892 1.343 1.447 2.342 1.447s1.896-.555 2.342-1.447l1.276-2.553h5.382c1.103 0 2-.897 2-2v-12c0-1.103-.897-2-2-2h-18c-1.103 0-2 .897-2 2v12c0 1.103.897 2 2 2zm0-14h18v12h-6.618l-1.829 3.659c-.211.421-.895.421-1.105 0l-1.83-3.659h-6.618z" fill="#0dd923" data-original="#000000" style="" class=""/><path d="m10.707 17.707 2.293-2.293 2.293 2.293 1.414-1.414-2.293-2.293 2.293-2.293-1.414-1.414-2.293 2.293-2.293-2.293-1.414 1.414 2.293 2.293-2.293 2.293z" fill="#0dd923" data-original="#000000" style="" class=""/></g></g></svg>
