<?xml version="1.0"?>
<svg xmlns="http://www.w3.org/2000/svg" xmlns:xlink="http://www.w3.org/1999/xlink" xmlns:svgjs="http://svgjs.com/svgjs" version="1.1" width="512" height="512" x="0" y="0" viewBox="0 0 490.667 490.667" style="enable-background:new 0 0 512 512" xml:space="preserve" class=""><g>
<g xmlns="http://www.w3.org/2000/svg">
	<g>
		<path d="M295.531,227.136c-4.16-4.16-10.923-4.16-15.083,0L256,251.584V21.333c0-5.888-4.779-10.667-10.667-10.667    s-10.667,4.779-10.667,10.667v256c0,4.309,2.603,8.213,6.592,9.856c1.323,0.555,2.709,0.811,4.075,0.811    c2.773,0,5.504-1.088,7.531-3.115l42.667-42.667C299.691,238.059,299.691,231.296,295.531,227.136z" fill="#0dd923" data-original="#000000" style="" class=""/>
	</g>
</g>
<g xmlns="http://www.w3.org/2000/svg">
	<g>
		<path d="M252.864,269.803l-42.667-42.667c-4.16-4.16-10.923-4.16-15.083,0c-4.16,4.16-4.16,10.923,0,15.083l42.667,42.667    c2.091,2.069,4.821,3.115,7.552,3.115s5.461-1.045,7.531-3.115C257.024,280.725,257.024,273.963,252.864,269.803z" fill="#0dd923" data-original="#000000" style="" class=""/>
	</g>
</g>
<g xmlns="http://www.w3.org/2000/svg">
	<g>
		<path d="M478.123,244.629l-76.907-115.371C387.328,108.437,364.096,96,339.093,96H288c-5.888,0-10.667,4.779-10.667,10.667    s4.779,10.667,10.667,10.667h51.093c17.856,0,34.453,8.875,44.373,23.744l76.907,115.371c5.867,8.789,8.96,19.029,8.96,29.589    v140.629c0,17.643-14.357,32-32,32h-384c-17.643,0-32-14.357-32-32V287.616c0-11.413,3.563-22.315,10.624-31.979l68.992-104.704    c13.867-21.056,37.184-33.6,62.357-33.6h39.36c5.888,0,10.667-4.779,10.667-10.667S208.555,96,202.667,96h-39.36    c-32.384,0-62.357,16.149-80.171,43.2L14.443,243.477C4.992,256.384,0,271.637,0,287.616v139.051C0,456.064,23.936,480,53.333,480    h384c29.397,0,53.333-23.936,53.333-53.333V286.037C490.667,271.253,486.336,256.939,478.123,244.629z" fill="#0dd923" data-original="#000000" style="" class=""/>
	</g>
</g>
<g xmlns="http://www.w3.org/2000/svg">
	<g>
		<path d="M469.333,266.667H416c-29.397,0-53.333,23.936-53.333,53.333c0,17.643-14.357,32-32,32H160c-17.643,0-32-14.357-32-32    c0-29.397-23.936-53.333-53.333-53.333H21.333c-5.888,0-10.667,4.779-10.667,10.667S15.445,288,21.333,288h53.333    c17.643,0,32,14.357,32,32c0,29.397,23.936,53.333,53.333,53.333h170.667C360.064,373.333,384,349.397,384,320    c0-17.643,14.357-32,32-32h53.333c5.888,0,10.667-4.779,10.667-10.667S475.221,266.667,469.333,266.667z" fill="#0dd923" data-original="#000000" style="" class=""/>
	</g>
</g>
<g xmlns="http://www.w3.org/2000/svg">
</g>
<g xmlns="http://www.w3.org/2000/svg">
</g>
<g xmlns="http://www.w3.org/2000/svg">
</g>
<g xmlns="http://www.w3.org/2000/svg">
</g>
<g xmlns="http://www.w3.org/2000/svg">
</g>
<g xmlns="http://www.w3.org/2000/svg">
</g>
<g xmlns="http://www.w3.org/2000/svg">
</g>
<g xmlns="http://www.w3.org/2000/svg">
</g>
<g xmlns="http://www.w3.org/2000/svg">
</g>
<g xmlns="http://www.w3.org/2000/svg">
</g>
<g xmlns="http://www.w3.org/2000/svg">
</g>
<g xmlns="http://www.w3.org/2000/svg">
</g>
<g xmlns="http://www.w3.org/2000/svg">
</g>
<g xmlns="http://www.w3.org/2000/svg">
</g>
<g xmlns="http://www.w3.org/2000/svg">
</g>
</g></svg>
